# xmcd
#
# Track frame offsets:
#	150
#	14087
#	27032
#	42280
#	54807
#	68090
#	87605
#	103247
#	115645
#	129732
#	144765
#	161082
#
# Disc length: 2322 seconds
#
# Revision: 2
# Processed by: cddbd v1.5.2PL0 Copyright (c) Steve Scherf et al.
# Submitted via: EasyCDDAExtractor 15.3.0.1
#
DISCID=9d09100c
DTITLE=Ana Gabriel - Eternamente
DYEAR=2000
DGENRE=Latin
TTITLE0=Poquita Fe
TTITLE1=Como Un Lunar
TTITLE2=Dios No Lo Quiera
TTITLE3=No Llorare
TTITLE4=Caminos Diferentes
TTITLE5=Por Ti
TTITLE6=Flores Negras
TTITLE7=Tu Me Acostumbraste
TTITLE8=Historia De Un Amor
TTITLE9=Franqueza
TTITLE10=Mas Que Un Simple Amor (Te Quieres Engañar)
TTITLE11=Eternamente
EXTD=
EXTT0=
EXTT1=
EXTT2=
EXTT3=
EXTT4=
EXTT5=
EXTT6=
EXTT7=
EXTT8=
EXTT9=
EXTT10=
EXTT11=
PLAYORDER=
